<?xml version="1.0" encoding="UTF-8"?>
<svg width="20px" height="18px" viewBox="0 0 20 18" version="1.1" xmlns="http://www.w3.org/2000/svg" xmlns:xlink="http://www.w3.org/1999/xlink">
    <!-- Generator: Sketch 64 (93537) - https://sketch.com -->
    <title>twitter</title>
    <desc>Created with Sketch.</desc>
    <defs>
        <path d="M19.9441797,7.92638672 C19.956875,8.10404297 19.956875,8.28173828 19.956875,8.45939453 C19.956875,13.8781445 15.8325391,20.1218164 8.29445312,20.1218164 C5.97210937,20.1218164 3.81476562,19.4491992 2.00003906,18.2817383 C2.33,18.3197852 2.64722656,18.3324805 2.98988281,18.3324805 C4.90609375,18.3324805 6.67007812,17.685293 8.07871094,16.5812305 C6.27667969,16.5431445 4.76652344,15.3629492 4.24621094,13.7385742 C4.50003906,13.7766211 4.75382812,13.8020117 5.02035156,13.8020117 C5.38835937,13.8020117 5.75640625,13.7512305 6.09902344,13.6624414 C4.22085937,13.2816992 2.8121875,11.6319727 2.8121875,9.63958984 L2.8121875,9.58884766 C3.35785156,9.89341797 3.99242187,10.0837695 4.66496094,10.1091211 C3.56089844,9.37306641 2.83757812,8.11673828 2.83757812,6.69541016 C2.83757812,5.93400391 3.04058594,5.23603516 3.3959375,4.62689453 C5.41371094,7.11419922 8.44671875,8.73853516 11.8476953,8.91623047 C11.7842578,8.61166016 11.7461719,8.29443359 11.7461719,7.97716797 C11.7461719,5.71826172 13.5735937,3.87818359 15.8451562,3.87818359 C17.0253516,3.87818359 18.0913281,4.37310547 18.8400781,5.17259766 C19.7664453,4.99494141 20.6547656,4.65228516 21.4416016,4.18275391 C21.1369922,5.13455078 20.4898047,5.93404297 19.6395703,6.44162109 C20.4644531,6.35283203 21.2639453,6.12435547 21.9999609,5.80712891 C21.4416797,6.61927734 20.7436719,7.34259766 19.9441797,7.92638672 Z" id="path-1"></path>
    </defs>
    <g id="Symbols" stroke="none" stroke-width="1" fill="none" fill-rule="evenodd">
        <g id="EVO-/-01-Fragments-/-Icons-/-Brands-/-Twitter" transform="translate(-2.000000, -3.000000)">
            <mask id="mask-2" fill="white">
                <use xlink:href="#path-1"></use>
            </mask>
            <use id="twitter" fill="#000000" xlink:href="#path-1"></use>
        </g>
    </g>
</svg>