<?xml version="1.0" encoding="UTF-8"?>
<svg width="18px" height="18px" viewBox="0 0 18 18" version="1.1" xmlns="http://www.w3.org/2000/svg" xmlns:xlink="http://www.w3.org/1999/xlink">
    <!-- Generator: Sketch 64 (93537) - https://sketch.com -->
    <title>linkedin-in</title>
    <desc>Created with Sketch.</desc>
    <defs>
        <path d="M7.02901138,20.75 L3.29725508,20.75 L3.29725508,9.06640625 L7.02901138,9.06640625 L7.02901138,20.75 Z M5.16112475,7.47265625 C3.96808748,7.47265625 3,6.51171875 3,5.3515625 C3,4.19140625 3.96808748,3.25 5.16112475,3.25 C6.35416202,3.25 7.3222495,4.19140625 7.3222495,5.3515625 C7.3222495,6.51171875 6.35416202,7.47265625 5.16112475,7.47265625 Z M20.995983,20.75 L17.2722607,20.75 L17.2722607,15.0625 C17.2722607,13.7070312 17.2441419,11.96875 15.3320687,11.96875 C13.3918768,11.96875 13.0946217,13.4414062 13.0946217,14.9648438 L13.0946217,20.75 L9.36688239,20.75 L9.36688239,9.06640625 L12.9459942,9.06640625 L12.9459942,10.6601562 L12.9982147,10.6601562 C13.4963178,9.7421875 14.7134568,8.7734375 16.529123,8.7734375 C20.3050658,8.7734375 21,11.1914062 21,14.3320312 L21,20.75 L20.995983,20.75 Z" id="path-1"></path>
    </defs>
    <g id="Symbols" stroke="none" stroke-width="1" fill="none" fill-rule="evenodd">
        <g id="EVO-/-01-Fragments-/-Icons-/-Brands-/-Linkedin" transform="translate(-3.000000, -3.000000)">
            <mask id="mask-2" fill="white">
                <use xlink:href="#path-1"></use>
            </mask>
            <use id="linkedin-in" fill="#000000" xlink:href="#path-1"></use>
        </g>
    </g>
</svg>