<svg xmlns="http://www.w3.org/2000/svg" width="61" height="20" viewBox="0 0 61 20">
    <path fill="#FFFFFE" fill-rule="evenodd" d="M52.469 11.183c-2.142 0-3.878-1.729-3.878-3.862 0-2.132 1.736-3.86 3.878-3.86 2.142 0 3.88 1.728 3.88 3.86 0 2.133-1.738 3.862-3.88 3.862zm0-11.183c-4.193 0-7.592 3.278-7.592 7.321 0 4.044 3.399 7.322 7.592 7.322 4.194 0 7.593-3.278 7.593-7.322C60.062 3.278 56.663 0 52.47 0zM39.117 14.188L44.981.457h-3.878l-3.333 8.34-3.314-8.34h-3.878l5.771 13.731h2.768zm-9.954-3.024h-7.147V8.798h5.736V5.774h-5.736V3.48h7.147V.457H18.447v13.731h10.716v-3.024zm28.9 8.788h1.987v-.539h-1.387v-.696h1.258v-.52h-1.258v-.638h1.387v-.534h-1.988v2.927zm-2.91-2.4h.943v2.4h.616v-2.4h.947v-.536h-2.505v.536zm-.996 1.32l-1.296-1.856h-.574v2.936h.589v-1.956l1.387 1.956h.482v-2.936h-.588v1.856zm-4.338 1.08h1.994v-.54h-1.391v-.698h1.262v-.522h-1.262v-.64h1.391v-.536H49.82v2.936zm-1.58-1.052h.56c-.067.335-.301.56-.68.56-.491 0-.793-.407-.793-.976 0-.564.296-.97.78-.97.339 0 .521.172.626.449h.617c-.11-.588-.535-.995-1.243-.995-.799 0-1.402.617-1.402 1.516S47.303 20 48.12 20c.742 0 1.278-.517 1.278-1.33v-.258H48.24v.488zm-2.563 1.052h.612v-2.936h-.612v2.936zm-1.814-2.936h-.612v2.936h1.98v-.54h-1.368v-2.396zm-3.08 2.936h1.994v-.54h-1.391v-.698h1.262v-.522h-1.262v-.64h1.391v-.536h-1.995v2.936zm-2.909-2.4h.942v2.4h.617v-2.4h.947v-.536h-2.506v.536zm-.996 1.32l-1.296-1.856h-.574v2.936h.589v-1.956l1.387 1.956h.483v-2.936h-.589v1.856zm-3.042 1.08h.612v-2.936h-.612v2.936zm-3.163-1.224l.359-.976.359.976h-.718zm.063-1.712l-1.124 2.936h.612l.258-.708h1.1l.264.708h.62l-1.123-2.936h-.607zm-2.464.497c.34 0 .521.182.621.45h.608c-.11-.588-.536-.995-1.229-.995-.784 0-1.368.617-1.368 1.516S27.487 20 28.27 20c.693 0 1.119-.407 1.229-1h-.608c-.1.273-.281.455-.62.455-.47 0-.747-.416-.747-.97 0-.56.277-.972.746-.972zm-2.378 1.359l-1.297-1.856h-.573v2.936h.588v-1.956l1.387 1.956h.483v-2.936h-.588v1.856zm-4.018-.144l.359-.976.358.976h-.717zm.062-1.712l-1.124 2.936h.612l.259-.708h1.099l.263.708h.622l-1.124-2.936h-.607zm-2.32 2.42h-.579v-.737h.579c.286 0 .44.139.44.369 0 .224-.154.368-.44.368zm-.579-1.904h.498c.291 0 .444.106.444.34 0 .234-.153.35-.444.35h-.498v-.69zm1.138.904c.215-.076.387-.306.387-.621 0-.526-.377-.799-.99-.799H18.45v2.936h1.22c.612 0 .984-.291.984-.832 0-.32-.2-.593-.478-.684zm-9.732-14.15h2.088V2.197h-2.088v2.09zm-1.74 1.74h5.569V.457h-5.57v5.57zm3.828 2.786v9.4H1.74V2.196h4.178v6.615h6.614zM7.66.457H0v19.496h14.273V7.07H7.659V.457z"/>
</svg>
